<svg version="1.1" xmlns="http://www.w3.org/2000/svg" xmlns:xlink="http://www.w3.org/1999/xlink" width="1067.539306640625" height="1169"><defs/><g><g transform="translate(-6,-10) scale(1,1)"><rect fill="#C0C0C0" stroke="none" x="207.7733154296875" y="1058" width="128" height="102" opacity="0.2"/></g><g transform="translate(-6,-10) scale(1,1)"><rect fill="#ffffff" stroke="none" x="200.7733154296875" y="1051" width="128" height="102"/></g><g transform="translate(-6,-10) scale(1,1)"><path fill="none" stroke="#000000" d="M 200.7733154296875 1051 L 328.7733154296875 1051 L 328.7733154296875 1153 L 200.7733154296875 1153 L 200.7733154296875 1051 Z Z" stroke-miterlimit="10"/></g><g transform="translate(-6,-10) scale(1,1)"><path fill="none" stroke="#000000" d="M 200.7733154296875 1076 L 328.7733154296875 1076" stroke-miterlimit="10"/></g><g transform="translate(-6,-10) scale(1,1)"><path fill="none" stroke="#000000" d="M 200.7733154296875 1144 L 328.7733154296875 1144" stroke-miterlimit="10"/></g><g transform="translate(-6,-10) scale(1,1)"><g><path fill="none" stroke="none"/><text fill="#000000" stroke="none" font-family="Arial" font-size="13px" font-style="normal" font-weight="bold" text-decoration="none" x="213.4747314453125" y="1070.5">GitHubRepository</text></g></g><g transform="translate(-6,-10) scale(1,1)"><g><path fill="none" stroke="none"/><text fill="#000000" stroke="none" font-family="Arial" font-size="13px" font-style="normal" font-weight="normal" text-decoration="none" x="205.7733154296875" y="1093.5">-id: int</text></g></g><g transform="translate(-6,-10) scale(1,1)"><g><path fill="none" stroke="none"/><text fill="#000000" stroke="none" font-family="Arial" font-size="13px" font-style="normal" font-weight="normal" text-decoration="none" x="205.7733154296875" y="1108.5">-name: String</text></g></g><g transform="translate(-6,-10) scale(1,1)"><g><path fill="none" stroke="none"/><text fill="#000000" stroke="none" font-family="Arial" font-size="13px" font-style="normal" font-weight="normal" text-decoration="none" x="205.7733154296875" y="1123.5">-description: String</text></g></g><g transform="translate(-6,-10) scale(1,1)"><g><path fill="none" stroke="none"/><text fill="#000000" stroke="none" font-family="Arial" font-size="13px" font-style="normal" font-weight="normal" text-decoration="none" x="205.7733154296875" y="1138.5">-url: String</text></g></g><g transform="translate(-6,-10) scale(1,1)"><rect fill="#C0C0C0" stroke="none" x="115.3302001953125" y="397" width="182.4052734375" height="102" opacity="0.2"/></g><g transform="translate(-6,-10) scale(1,1)"><rect fill="#ffffff" stroke="none" x="108.3302001953125" y="390" width="182.4052734375" height="102"/></g><g transform="translate(-6,-10) scale(1,1)"><path fill="none" stroke="#000000" d="M 108.3302001953125 390 L 290.7354736328125 390 L 290.7354736328125 492 L 108.3302001953125 492 L 108.3302001953125 390 Z Z" stroke-miterlimit="10"/></g><g transform="translate(-6,-10) scale(1,1)"><path fill="none" stroke="#000000" d="M 108.3302001953125 415 L 290.7354736328125 415" stroke-miterlimit="10"/></g><g transform="translate(-6,-10) scale(1,1)"><path fill="none" stroke="#000000" d="M 108.3302001953125 483 L 290.7354736328125 483" stroke-miterlimit="10"/></g><g transform="translate(-6,-10) scale(1,1)"><g><path fill="none" stroke="none"/><text fill="#000000" stroke="none" font-family="Arial" font-size="13px" font-style="normal" font-weight="bold" text-decoration="none" x="165.5792236328125" y="409.5">GitHubUser</text></g></g><g transform="translate(-6,-10) scale(1,1)"><g><path fill="none" stroke="none"/><text fill="#000000" stroke="none" font-family="Arial" font-size="13px" font-style="normal" font-weight="normal" text-decoration="none" x="113.3302001953125" y="432.5">-id: int</text></g></g><g transform="translate(-6,-10) scale(1,1)"><g><path fill="none" stroke="none"/><text fill="#000000" stroke="none" font-family="Arial" font-size="13px" font-style="normal" font-weight="normal" text-decoration="none" x="113.3302001953125" y="447.5">-username: String</text></g></g><g transform="translate(-6,-10) scale(1,1)"><g><path fill="none" stroke="none"/><text fill="#000000" stroke="none" font-family="Arial" font-size="13px" font-style="normal" font-weight="normal" text-decoration="none" x="113.3302001953125" y="462.5">-url: String</text></g></g><g transform="translate(-6,-10) scale(1,1)"><g><path fill="none" stroke="none"/><text fill="#000000" stroke="none" font-family="Arial" font-size="13px" font-style="normal" font-weight="normal" text-decoration="none" x="113.3302001953125" y="477.5">-repos: GitHubRepository[0..*]</text></g></g><g transform="translate(-6,-10) scale(1,1)"><rect fill="#C0C0C0" stroke="none" x="246.1680908203125" y="948.5" width="231.17431640625" height="57" opacity="0.2"/></g><g transform="translate(-6,-10) scale(1,1)"><rect fill="#ffffff" stroke="none" x="239.1680908203125" y="941.5" width="231.17431640625" height="57"/></g><g transform="translate(-6,-10) scale(1,1)"><path fill="none" stroke="#000000" d="M 239.1680908203125 941.5 L 470.3424072265625 941.5 L 470.3424072265625 998.5 L 239.1680908203125 998.5 L 239.1680908203125 941.5 Z Z" stroke-miterlimit="10"/></g><g transform="translate(-6,-10) scale(1,1)"><path fill="none" stroke="#000000" d="M 239.1680908203125 966.5 L 470.3424072265625 966.5" stroke-miterlimit="10"/></g><g transform="translate(-6,-10) scale(1,1)"><path fill="none" stroke="#000000" d="M 239.1680908203125 976.5 L 470.3424072265625 976.5" stroke-miterlimit="10"/></g><g transform="translate(-6,-10) scale(1,1)"><g><path fill="none" stroke="none"/><text fill="#000000" stroke="none" font-family="Arial" font-size="13px" font-style="normal" font-weight="bold" text-decoration="none" x="269.1412353515625" y="961">GitHubRepositoryDeserializer</text></g></g><g transform="translate(-6,-10) scale(1,1)"><g><path fill="none" stroke="none"/><text fill="#000000" stroke="none" font-family="Arial" font-size="13px" font-style="normal" font-weight="normal" text-decoration="none" x="244.1680908203125" y="994">+deserialize(String): GitHubRepository</text></g></g><g transform="translate(-6,-10) scale(1,1)"><rect fill="#C0C0C0" stroke="none" x="233.5130615234375" y="309" width="196.484375" height="57" opacity="0.2"/></g><g transform="translate(-6,-10) scale(1,1)"><rect fill="#ffffff" stroke="none" x="226.5130615234375" y="302" width="196.484375" height="57"/></g><g transform="translate(-6,-10) scale(1,1)"><path fill="none" stroke="#000000" d="M 226.5130615234375 302 L 422.9974365234375 302 L 422.9974365234375 359 L 226.5130615234375 359 L 226.5130615234375 302 Z Z" stroke-miterlimit="10"/></g><g transform="translate(-6,-10) scale(1,1)"><path fill="none" stroke="#000000" d="M 226.5130615234375 327 L 422.9974365234375 327" stroke-miterlimit="10"/></g><g transform="translate(-6,-10) scale(1,1)"><path fill="none" stroke="#000000" d="M 226.5130615234375 337 L 422.9974365234375 337" stroke-miterlimit="10"/></g><g transform="translate(-6,-10) scale(1,1)"><g><path fill="none" stroke="none"/><text fill="#000000" stroke="none" font-family="Arial" font-size="13px" font-style="normal" font-weight="bold" text-decoration="none" x="256.4862060546875" y="321.5">GitHubUserDeserializer</text></g></g><g transform="translate(-6,-10) scale(1,1)"><g><path fill="none" stroke="none"/><text fill="#000000" stroke="none" font-family="Arial" font-size="13px" font-style="normal" font-weight="normal" text-decoration="none" x="231.5130615234375" y="354.5">+deserialize(String): GitHubUser</text></g></g><g transform="translate(-6,-10) scale(1,1)"><rect fill="#C0C0C0" stroke="none" x="58.9661865234375" y="45" width="196.298828125" height="87" opacity="0.2"/></g><g transform="translate(-6,-10) scale(1,1)"><rect fill="#C0C0C0" stroke="none" x="247.3240966796875" y="27" width="16.94091796875" height="22" opacity="0.2"/></g><g transform="translate(-6,-10) scale(1,1)"><rect fill="#ffffff" stroke="none" x="51.9661865234375" y="38" width="196.298828125" height="87"/></g><g transform="translate(-6,-10) scale(1,1)"><path fill="none" stroke="#000000" d="M 51.9661865234375 38 L 248.2650146484375 38 L 248.2650146484375 125 L 51.9661865234375 125 L 51.9661865234375 38 Z Z" stroke-miterlimit="10"/></g><g transform="translate(-6,-10) scale(1,1)"><path fill="none" stroke="#000000" d="M 51.9661865234375 63 L 248.2650146484375 63" stroke-miterlimit="10"/></g><g transform="translate(-6,-10) scale(1,1)"><path fill="none" stroke="#000000" d="M 51.9661865234375 116 L 248.2650146484375 116" stroke-miterlimit="10"/></g><g transform="translate(-6,-10) scale(1,1)"><g><path fill="none" stroke="none"/><text fill="#000000" stroke="none" font-family="Arial" font-size="13px" font-style="normal" font-weight="bold" text-decoration="none" x="87.6165771484375" y="57.5">GitHubSearchResults</text></g></g><g transform="translate(-6,-10) scale(1,1)"><g><path fill="none" stroke="none"/><text fill="#000000" stroke="none" font-family="Arial" font-size="13px" font-style="normal" font-weight="normal" text-decoration="none" x="56.9661865234375" y="80.5">-totalCount</text></g></g><g transform="translate(-6,-10) scale(1,1)"><g><path fill="none" stroke="none"/><text fill="#000000" stroke="none" font-family="Arial" font-size="13px" font-style="normal" font-weight="normal" text-decoration="none" x="56.9661865234375" y="95.5">-incompleteResults: boolean</text></g></g><g transform="translate(-6,-10) scale(1,1)"><g><path fill="none" stroke="none"/><text fill="#000000" stroke="none" font-family="Arial" font-size="13px" font-style="normal" font-weight="normal" text-decoration="none" x="56.9661865234375" y="110.5">-items: T[0..*]</text></g></g><g transform="translate(-6,-10) scale(1,1)"><rect fill="#ffffff" stroke="none" x="240.3240966796875" y="20" width="16.94091796875" height="22"/></g><g transform="translate(-6,-10) scale(1,1)"><path fill="none" stroke="#000000" d="M 240.3240966796875 20 L 257.2650146484375 20 L 257.2650146484375 42 L 240.3240966796875 42 L 240.3240966796875 20 Z Z" stroke-miterlimit="10" stroke-dasharray="3"/></g><g transform="translate(-6,-10) scale(1,1)"><g><path fill="none" stroke="none"/><text fill="#000000" stroke="none" font-family="Arial" font-size="13px" font-style="normal" font-weight="normal" text-decoration="none" x="245.3240966796875" y="37.5">T</text></g></g><g transform="translate(-6,-10) scale(1,1)"><rect fill="#C0C0C0" stroke="none" x="57" y="927" width="112.32080078125" height="100" opacity="0.2"/></g><g transform="translate(-6,-10) scale(1,1)"><rect fill="#ffffff" stroke="none" x="50" y="920" width="112.32080078125" height="100"/></g><g transform="translate(-6,-10) scale(1,1)"><path fill="none" stroke="#000000" d="M 50 920 L 162.32080078125 920 L 162.32080078125 1020 L 50 1020 L 50 920 Z Z" stroke-miterlimit="10"/></g><g transform="translate(-6,-10) scale(1,1)"><path fill="none" stroke="#000000" d="M 50 945 L 162.32080078125 945" stroke-miterlimit="10"/></g><g transform="translate(-6,-10) scale(1,1)"><path fill="none" stroke="#000000" d="M 50 998 L 162.32080078125 998" stroke-miterlimit="10"/></g><g transform="translate(-6,-10) scale(1,1)"><g><path fill="none" stroke="none"/><text fill="#000000" stroke="none" font-family="Arial" font-size="13px" font-style="normal" font-weight="bold" text-decoration="none" x="74.3681640625" y="939.5">JsonGetter</text></g></g><g transform="translate(-6,-10) scale(1,1)"><g><path fill="none" stroke="none"/><text fill="#000000" stroke="none" font-family="Arial" font-size="13px" font-style="normal" font-weight="normal" text-decoration="none" x="55" y="962.5">-url: String</text></g></g><g transform="translate(-6,-10) scale(1,1)"><g><path fill="none" stroke="none"/><text fill="#000000" stroke="none" font-family="Arial" font-size="13px" font-style="normal" font-weight="normal" text-decoration="none" x="55" y="977.5">-status: int</text></g></g><g transform="translate(-6,-10) scale(1,1)"><g><path fill="none" stroke="none"/><text fill="#000000" stroke="none" font-family="Arial" font-size="13px" font-style="normal" font-weight="normal" text-decoration="none" x="55" y="992.5">-jsonString: String</text></g></g><g transform="translate(-6,-10) scale(1,1)"><g><path fill="none" stroke="none"/><text fill="#000000" stroke="none" font-family="Arial" font-size="13px" font-style="normal" font-weight="normal" text-decoration="none" x="55" y="1015.5">+getJson(): void</text></g></g><g transform="translate(-6,-10) scale(1,1)"><rect fill="#C0C0C0" stroke="none" x="58.0675048828125" y="163" width="266.9306640625" height="115" opacity="0.2"/></g><g transform="translate(-6,-10) scale(1,1)"><rect fill="#ffffff" stroke="none" x="51.0675048828125" y="156" width="266.9306640625" height="115"/></g><g transform="translate(-6,-10) scale(1,1)"><path fill="none" stroke="#000000" d="M 51.0675048828125 156 L 317.9981689453125 156 L 317.9981689453125 271 L 51.0675048828125 271 L 51.0675048828125 156 Z Z" stroke-miterlimit="10"/></g><g transform="translate(-6,-10) scale(1,1)"><path fill="none" stroke="#000000" d="M 51.0675048828125 181 L 317.9981689453125 181" stroke-miterlimit="10"/></g><g transform="translate(-6,-10) scale(1,1)"><path fill="none" stroke="#000000" d="M 51.0675048828125 234 L 317.9981689453125 234" stroke-miterlimit="10"/></g><g transform="translate(-6,-10) scale(1,1)"><g><path fill="none" stroke="none"/><text fill="#000000" stroke="none" font-family="Arial" font-size="13px" font-style="normal" font-weight="bold" text-decoration="none" x="124.2047119140625" y="175.5">GitHubUserSearcher</text></g></g><g transform="translate(-6,-10) scale(1,1)"><g><path fill="none" stroke="none"/><text fill="#000000" stroke="none" font-family="Arial" font-size="13px" font-style="normal" font-weight="normal" text-decoration="none" x="56.0675048828125" y="198.5">-url: String</text></g></g><g transform="translate(-6,-10) scale(1,1)"><g><path fill="none" stroke="none"/><text fill="#000000" stroke="none" font-family="Arial" font-size="13px" font-style="normal" font-weight="normal" text-decoration="none" x="56.0675048828125" y="213.5">-jsonString: String</text></g></g><g transform="translate(-6,-10) scale(1,1)"><g><path fill="none" stroke="none"/><text fill="#000000" stroke="none" font-family="Arial" font-size="13px" font-style="normal" font-weight="normal" text-decoration="none" x="56.0675048828125" y="228.5">-results: GitHubSearchResults&lt;GitHubUser&gt;</text></g></g><g transform="translate(-6,-10) scale(1,1)"><g><path fill="none" stroke="none"/><text fill="#000000" stroke="none" font-family="Arial" font-size="13px" font-style="normal" font-weight="normal" text-decoration="none" x="56.0675048828125" y="251.5">+getJson(): void</text></g></g><g transform="translate(-6,-10) scale(1,1)"><g><path fill="none" stroke="none"/><text fill="#000000" stroke="none" font-family="Arial" font-size="13px" font-style="normal" font-weight="normal" text-decoration="none" x="56.0675048828125" y="266.5">+deserializeJson(): void</text></g></g><g transform="translate(-6,-10) scale(1,1)"><path fill="none" stroke="#000000" d="M 200 1119 Q 16 1168 18 838 Q 20 508 107 475" stroke-miterlimit="10"/></g><g transform="translate(-6,-10) scale(1,1)"><path fill="#000000" stroke="none" d="M 98.99084744312614 482.54012435711246 L 107 475 L 96.00500085157283 474.668346979381 L 86.43005442100876 482.8023931506518"/></g><g transform="translate(-6,-10) scale(1,1)"><path fill="none" stroke="#000000" d="M 98.99084744312614 482.54012435711246 L 107 475 L 96.00500085157283 474.668346979381 L 86.43005442100876 482.8023931506518 L 98.99084744312614 482.54012435711246" stroke-miterlimit="10"/></g><g transform="translate(-6,-10) scale(1,1)"><g><path fill="none" stroke="none"/><text fill="#000000" stroke="none" font-family="Arial" font-size="13px" font-style="normal" font-weight="normal" text-decoration="none" x="81.5" y="500.5">0..*</text></g></g><g transform="translate(-6,-10) scale(1,1)"><path fill="none" stroke="#000000" d="M 284 360 Q 264 375 250 389" stroke-miterlimit="10" stroke-dasharray="3"/></g><g transform="translate(-6,-10) scale(1,1)"><path fill="none" stroke="#000000" d="M 254.209517756016 378.83732514237585 L 250 389 L 260.16267485762415 384.790482243984" stroke-miterlimit="10"/></g><g transform="translate(-6,-10) scale(1,1)"><path fill="none" stroke="#000000" d="M 296 272 Q 325 287 325 301" stroke-miterlimit="10" stroke-dasharray="3"/></g><g transform="translate(-6,-10) scale(1,1)"><path fill="none" stroke="#000000" d="M 320.790482243984 290.83732514237585 L 325 301 L 329.209517756016 290.83732514237585" stroke-miterlimit="10"/></g><g transform="translate(-6,-10) scale(1,1)"><path fill="none" stroke="#000000" d="M 99 272 Q 78 287 59 587.5 Q 40 888 68 888 Q 96 888 100 919" stroke-miterlimit="10" stroke-dasharray="3"/></g><g transform="translate(-6,-10) scale(1,1)"><path fill="none" stroke="#000000" d="M 94.52456236494949 909.4595816284257 L 100 919 L 102.87437544418864 908.3821863923948" stroke-miterlimit="10"/></g><g transform="translate(-6,-10) scale(1,1)"><path fill="none" stroke="#000000" d="M 188 389 Q 185 375 185 331 Q 185 287 185 272" stroke-miterlimit="10"/></g><g transform="translate(-6,-10) scale(1,1)"><path fill="#000000" stroke="none" d="M 189.209517756016 282.16267485762415 L 185 272 L 180.790482243984 282.16267485762415 L 185 294"/></g><g transform="translate(-6,-10) scale(1,1)"><path fill="none" stroke="#000000" d="M 189.209517756016 282.16267485762415 L 185 272 L 180.790482243984 282.16267485762415 L 185 294 L 189.209517756016 282.16267485762415" stroke-miterlimit="10"/></g><g transform="translate(-6,-10) scale(1,1)"><g><path fill="none" stroke="none"/><text fill="#000000" stroke="none" font-family="Arial" font-size="13px" font-style="normal" font-weight="normal" text-decoration="none" x="187.5" y="299.5">0..*</text></g></g><g transform="translate(-6,-10) scale(1,1)"><path fill="none" stroke="#000000" d="M 156 126 Q 156 141 161 155" stroke-miterlimit="10"/></g><g transform="translate(-6,-10) scale(1,1)"><path fill="#000000" stroke="none" d="M 153.61764325608004 146.8451971878224 L 161 155 L 161.54620185296585 144.01356911750605 L 153.60059926604055 134.28167794491358"/></g><g transform="translate(-6,-10) scale(1,1)"><path fill="none" stroke="#000000" d="M 153.61764325608004 146.8451971878224 L 161 155 L 161.54620185296585 144.01356911750605 L 153.60059926604055 134.28167794491358 L 153.61764325608004 146.8451971878224" stroke-miterlimit="10"/></g><g transform="translate(-6,-10) scale(1,1)"><g><path fill="none" stroke="none"/><text fill="#000000" stroke="none" font-family="Arial" font-size="13px" font-style="normal" font-weight="normal" text-decoration="none" x="137.726806640625" y="144.5">1</text></g></g><g transform="translate(-6,-10) scale(1,1)"><path fill="none" stroke="#000000" d="M 354 1000 Q 355 1036 330 1054" stroke-miterlimit="10" stroke-dasharray="3"/></g><g transform="translate(-6,-10) scale(1,1)"><path fill="none" stroke="#000000" d="M 335.78771852959875 1044.6457328335064 L 330 1054 L 340.7070007663366 1051.47806927342" stroke-miterlimit="10"/></g><g transform="translate(-6,-10) scale(1,1)"><rect fill="#C0C0C0" stroke="none" x="268.0452880859375" y="766" width="187.419921875" height="115" opacity="0.2"/></g><g transform="translate(-6,-10) scale(1,1)"><rect fill="#ffffff" stroke="none" x="261.0452880859375" y="759" width="187.419921875" height="115"/></g><g transform="translate(-6,-10) scale(1,1)"><path fill="none" stroke="#000000" d="M 261.0452880859375 759 L 448.4652099609375 759 L 448.4652099609375 874 L 261.0452880859375 874 L 261.0452880859375 759 Z Z" stroke-miterlimit="10"/></g><g transform="translate(-6,-10) scale(1,1)"><path fill="none" stroke="#000000" d="M 261.0452880859375 784 L 448.4652099609375 784" stroke-miterlimit="10"/></g><g transform="translate(-6,-10) scale(1,1)"><path fill="none" stroke="#000000" d="M 261.0452880859375 837 L 448.4652099609375 837" stroke-miterlimit="10"/></g><g transform="translate(-6,-10) scale(1,1)"><g><path fill="none" stroke="none"/><text fill="#000000" stroke="none" font-family="Arial" font-size="13px" font-style="normal" font-weight="bold" text-decoration="none" x="271.6707763671875" y="778.5">GitHubUserRepositoryGetter</text></g></g><g transform="translate(-6,-10) scale(1,1)"><g><path fill="none" stroke="none"/><text fill="#000000" stroke="none" font-family="Arial" font-size="13px" font-style="normal" font-weight="normal" text-decoration="none" x="266.0452880859375" y="801.5">-url: String</text></g></g><g transform="translate(-6,-10) scale(1,1)"><g><path fill="none" stroke="none"/><text fill="#000000" stroke="none" font-family="Arial" font-size="13px" font-style="normal" font-weight="normal" text-decoration="none" x="266.0452880859375" y="816.5">-jsonString: String</text></g></g><g transform="translate(-6,-10) scale(1,1)"><g><path fill="none" stroke="none"/><text fill="#000000" stroke="none" font-family="Arial" font-size="13px" font-style="normal" font-weight="normal" text-decoration="none" x="266.0452880859375" y="831.5">-repos: GitHubRepository[0..*]</text></g></g><g transform="translate(-6,-10) scale(1,1)"><g><path fill="none" stroke="none"/><text fill="#000000" stroke="none" font-family="Arial" font-size="13px" font-style="normal" font-weight="normal" text-decoration="none" x="266.0452880859375" y="854.5">+getJson(): void</text></g></g><g transform="translate(-6,-10) scale(1,1)"><g><path fill="none" stroke="none"/><text fill="#000000" stroke="none" font-family="Arial" font-size="13px" font-style="normal" font-weight="normal" text-decoration="none" x="266.0452880859375" y="869.5">+deserializeJson(): void</text></g></g><g transform="translate(-6,-10) scale(1,1)"><path fill="none" stroke="#000000" d="M 330 1087 Q 548 1036 538 998 Q 528 960 425 875" stroke-miterlimit="10"/></g><g transform="translate(-6,-10) scale(1,1)"><path fill="#000000" stroke="none" d="M 435.51761604472233 878.2217623648866 L 425 875 L 430.15894761155675 884.7152076427225 L 441.9681902289437 889.0028754316526"/></g><g transform="translate(-6,-10) scale(1,1)"><path fill="none" stroke="#000000" d="M 435.51761604472233 878.2217623648866 L 425 875 L 430.15894761155675 884.7152076427225 L 441.9681902289437 889.0028754316526 L 435.51761604472233 878.2217623648866" stroke-miterlimit="10"/></g><g transform="translate(-6,-10) scale(1,1)"><g><path fill="none" stroke="none"/><text fill="#000000" stroke="none" font-family="Arial" font-size="13px" font-style="normal" font-weight="normal" text-decoration="none" x="439.5" y="885.5">0..*</text></g></g><g transform="translate(-6,-10) scale(1,1)"><path fill="none" stroke="#000000" d="M 355 875 Q 355 905 354 941" stroke-miterlimit="10" stroke-dasharray="3"/></g><g transform="translate(-6,-10) scale(1,1)"><path fill="none" stroke="#000000" d="M 350.0742930232062 930.7243576973333 L 354 941 L 358.49008232902077 930.9581296224949" stroke-miterlimit="10"/></g><g transform="translate(-6,-10) scale(1,1)"><path fill="none" stroke="#000000" d="M 345 758 Q 340 729 340 552 Q 340 375 335 360" stroke-miterlimit="10" stroke-dasharray="3"/></g><g transform="translate(-6,-10) scale(1,1)"><path fill="none" stroke="#000000" d="M 342.2072191549614 368.3099935049528 L 335 360 L 334.22022077900255 370.97232629693906" stroke-miterlimit="10"/></g><g transform="translate(-6,-10) scale(1,1)"><path fill="none" stroke="#000000" d="M 260 853 Q 129 905 124 919" stroke-miterlimit="10" stroke-dasharray="3"/></g><g transform="translate(-6,-10) scale(1,1)"><path fill="none" stroke="#000000" d="M 123.45379814703415 908.0135691175061 L 124 919 L 131.38235674391996 910.8451971878225" stroke-miterlimit="10"/></g><g transform="translate(-6,-10) scale(1,1)"><rect fill="#C0C0C0" stroke="none" x="402.385498046875" y="581.5" width="140.8662109375" height="87" opacity="0.2"/></g><g transform="translate(-6,-10) scale(1,1)"><rect fill="#ffffff" stroke="none" x="395.385498046875" y="574.5" width="140.8662109375" height="87"/></g><g transform="translate(-6,-10) scale(1,1)"><path fill="none" stroke="#000000" d="M 395.385498046875 574.5 L 536.251708984375 574.5 L 536.251708984375 661.5 L 395.385498046875 661.5 L 395.385498046875 574.5 Z Z" stroke-miterlimit="10"/></g><g transform="translate(-6,-10) scale(1,1)"><path fill="none" stroke="#000000" d="M 395.385498046875 599.5 L 536.251708984375 599.5" stroke-miterlimit="10"/></g><g transform="translate(-6,-10) scale(1,1)"><path fill="none" stroke="#000000" d="M 395.385498046875 652.5 L 536.251708984375 652.5" stroke-miterlimit="10"/></g><g transform="translate(-6,-10) scale(1,1)"><g><path fill="none" stroke="none"/><text fill="#000000" stroke="none" font-family="Arial" font-size="13px" font-style="normal" font-weight="bold" text-decoration="none" x="451.37451171875" y="594">Filter</text></g></g><g transform="translate(-6,-10) scale(1,1)"><g><path fill="none" stroke="none"/><text fill="#000000" stroke="none" font-family="Arial" font-size="13px" font-style="normal" font-weight="normal" text-decoration="none" x="400.385498046875" y="617">+used: boolean</text></g></g><g transform="translate(-6,-10) scale(1,1)"><g><path fill="none" stroke="none"/><text fill="#000000" stroke="none" font-family="Arial" font-size="13px" font-style="normal" font-weight="normal" text-decoration="none" x="400.385498046875" y="632">+compOperator: String</text></g></g><g transform="translate(-6,-10) scale(1,1)"><g><path fill="none" stroke="none"/><text fill="#000000" stroke="none" font-family="Arial" font-size="13px" font-style="normal" font-weight="normal" text-decoration="none" x="400.385498046875" y="647">+compLimit: int</text></g></g><g transform="translate(-6,-10) scale(1,1)"><rect fill="#C0C0C0" stroke="none" x="486.4652099609375" y="751" width="260.08154296875" height="145" opacity="0.2"/></g><g transform="translate(-6,-10) scale(1,1)"><rect fill="#ffffff" stroke="none" x="479.4652099609375" y="744" width="260.08154296875" height="145"/></g><g transform="translate(-6,-10) scale(1,1)"><path fill="none" stroke="#000000" d="M 479.4652099609375 744 L 739.5467529296875 744 L 739.5467529296875 889 L 479.4652099609375 889 L 479.4652099609375 744 Z Z" stroke-miterlimit="10"/></g><g transform="translate(-6,-10) scale(1,1)"><path fill="none" stroke="#000000" d="M 479.4652099609375 769 L 739.5467529296875 769" stroke-miterlimit="10"/></g><g transform="translate(-6,-10) scale(1,1)"><path fill="none" stroke="#000000" d="M 479.4652099609375 837 L 739.5467529296875 837" stroke-miterlimit="10"/></g><g transform="translate(-6,-10) scale(1,1)"><g><path fill="none" stroke="none"/><text fill="#000000" stroke="none" font-family="Arial" font-size="13px" font-style="normal" font-weight="bold" text-decoration="none" x="550.9805908203125" y="763.5">GitHubSearchQuery</text></g></g><g transform="translate(-6,-10) scale(1,1)"><g><path fill="none" stroke="none"/><text fill="#000000" stroke="none" font-family="Arial" font-size="13px" font-style="normal" font-weight="normal" text-decoration="none" x="484.4652099609375" y="786.5">-query: String</text></g></g><g transform="translate(-6,-10) scale(1,1)"><g><path fill="none" stroke="none"/><text fill="#000000" stroke="none" font-family="Arial" font-size="13px" font-style="normal" font-weight="normal" text-decoration="none" x="484.4652099609375" y="801.5">-searchIn: int</text></g></g><g transform="translate(-6,-10) scale(1,1)"><g><path fill="none" stroke="none"/><text fill="#000000" stroke="none" font-family="Arial" font-size="13px" font-style="normal" font-weight="normal" text-decoration="none" x="484.4652099609375" y="816.5">-repoFilter: Filter</text></g></g><g transform="translate(-6,-10) scale(1,1)"><g><path fill="none" stroke="none"/><text fill="#000000" stroke="none" font-family="Arial" font-size="13px" font-style="normal" font-weight="normal" text-decoration="none" x="484.4652099609375" y="831.5">-followerFilter: Filter</text></g></g><g transform="translate(-6,-10) scale(1,1)"><g><path fill="none" stroke="none"/><text fill="#000000" stroke="none" font-family="Arial" font-size="13px" font-style="normal" font-weight="normal" text-decoration="none" x="484.4652099609375" y="854.5">+setRepoFilter(boolean, String, int): void</text></g></g><g transform="translate(-6,-10) scale(1,1)"><g><path fill="none" stroke="none"/><text fill="#000000" stroke="none" font-family="Arial" font-size="13px" font-style="normal" font-weight="normal" text-decoration="none" x="484.4652099609375" y="869.5">+setFollowerFilter(boolean, String, int): void</text></g></g><g transform="translate(-6,-10) scale(1,1)"><g><path fill="none" stroke="none"/><text fill="#000000" stroke="none" font-family="Arial" font-size="13px" font-style="normal" font-weight="normal" text-decoration="none" x="484.4652099609375" y="884.5">+generateUrl(): String</text></g></g><g transform="translate(-6,-10) scale(1,1)"><path fill="none" stroke="#000000" d="M 496 663 Q 543 729 554 743" stroke-miterlimit="10"/></g><g transform="translate(-6,-10) scale(1,1)"><path fill="#000000" stroke="none" d="M 544.4112594385293 737.6096331808673 L 554 743 L 551.0313014568372 732.4081715950539 L 540.4079258574981 725.7009965459067"/></g><g transform="translate(-6,-10) scale(1,1)"><path fill="none" stroke="#000000" d="M 544.4112594385293 737.6096331808673 L 554 743 L 551.0313014568372 732.4081715950539 L 540.4079258574981 725.7009965459067 L 544.4112594385293 737.6096331808673" stroke-miterlimit="10"/></g><g transform="translate(-6,-10) scale(1,1)"><g><path fill="none" stroke="none"/><text fill="#000000" stroke="none" font-family="Arial" font-size="13px" font-style="normal" font-weight="normal" text-decoration="none" x="526.5" y="739.5">1</text></g></g><g transform="translate(-6,-10) scale(1,1)"><rect fill="#C0C0C0" stroke="none" x="798.3251953125" y="801.5" width="50.919921875" height="44" opacity="0.2"/></g><g transform="translate(-6,-10) scale(1,1)"><rect fill="#ffffff" stroke="none" x="791.3251953125" y="794.5" width="50.919921875" height="44"/></g><g transform="translate(-6,-10) scale(1,1)"><path fill="none" stroke="#000000" d="M 791.3251953125 794.5 L 842.2451171875 794.5 L 842.2451171875 838.5 L 791.3251953125 838.5 L 791.3251953125 794.5 Z Z" stroke-miterlimit="10"/></g><g transform="translate(-6,-10) scale(1,1)"><path fill="none" stroke="#000000" d="M 791.3251953125 819.5 L 842.2451171875 819.5" stroke-miterlimit="10"/></g><g transform="translate(-6,-10) scale(1,1)"><path fill="none" stroke="#000000" d="M 791.3251953125 829.5 L 842.2451171875 829.5" stroke-miterlimit="10"/></g><g transform="translate(-6,-10) scale(1,1)"><g><path fill="none" stroke="none"/><text fill="#000000" stroke="none" font-family="Arial" font-size="13px" font-style="normal" font-weight="bold" text-decoration="none" x="796.91064453125" y="814">JPanel</text></g></g><g transform="translate(-6,-10) scale(1,1)"><rect fill="#C0C0C0" stroke="none" x="835.59716796875" y="530" width="149.8671875" height="190" opacity="0.2"/></g><g transform="translate(-6,-10) scale(1,1)"><rect fill="#ffffff" stroke="none" x="828.59716796875" y="523" width="149.8671875" height="190"/></g><g transform="translate(-6,-10) scale(1,1)"><path fill="none" stroke="#000000" d="M 828.59716796875 523 L 978.46435546875 523 L 978.46435546875 713 L 828.59716796875 713 L 828.59716796875 523 Z Z" stroke-miterlimit="10"/></g><g transform="translate(-6,-10) scale(1,1)"><path fill="none" stroke="#000000" d="M 828.59716796875 548 L 978.46435546875 548" stroke-miterlimit="10"/></g><g transform="translate(-6,-10) scale(1,1)"><path fill="none" stroke="#000000" d="M 828.59716796875 691 L 978.46435546875 691" stroke-miterlimit="10"/></g><g transform="translate(-6,-10) scale(1,1)"><g><path fill="none" stroke="none"/><text fill="#000000" stroke="none" font-family="Arial" font-size="13px" font-style="normal" font-weight="bold" text-decoration="none" x="866.311279296875" y="542.5">SearchPanel</text></g></g><g transform="translate(-6,-10) scale(1,1)"><g><path fill="none" stroke="none"/><text fill="#000000" stroke="none" font-family="Arial" font-size="13px" font-style="normal" font-weight="normal" text-decoration="none" x="833.59716796875" y="565.5">-query: String</text></g></g><g transform="translate(-6,-10) scale(1,1)"><g><path fill="none" stroke="none"/><text fill="#000000" stroke="none" font-family="Arial" font-size="13px" font-style="normal" font-weight="normal" text-decoration="none" x="833.59716796875" y="580.5">-filterSearchIn: boolean</text></g></g><g transform="translate(-6,-10) scale(1,1)"><g><path fill="none" stroke="none"/><text fill="#000000" stroke="none" font-family="Arial" font-size="13px" font-style="normal" font-weight="normal" text-decoration="none" x="833.59716796875" y="595.5">-searchIn: int</text></g></g><g transform="translate(-6,-10) scale(1,1)"><g><path fill="none" stroke="none"/><text fill="#000000" stroke="none" font-family="Arial" font-size="13px" font-style="normal" font-weight="normal" text-decoration="none" x="833.59716796875" y="610.5">-filterRepo: boolean</text></g></g><g transform="translate(-6,-10) scale(1,1)"><g><path fill="none" stroke="none"/><text fill="#000000" stroke="none" font-family="Arial" font-size="13px" font-style="normal" font-weight="normal" text-decoration="none" x="833.59716796875" y="625.5">-repoFilterOpr: String</text></g></g><g transform="translate(-6,-10) scale(1,1)"><g><path fill="none" stroke="none"/><text fill="#000000" stroke="none" font-family="Arial" font-size="13px" font-style="normal" font-weight="normal" text-decoration="none" x="833.59716796875" y="640.5">-repoFilterLimit: int</text></g></g><g transform="translate(-6,-10) scale(1,1)"><g><path fill="none" stroke="none"/><text fill="#000000" stroke="none" font-family="Arial" font-size="13px" font-style="normal" font-weight="normal" text-decoration="none" x="833.59716796875" y="655.5">-filterFollower: boolean</text></g></g><g transform="translate(-6,-10) scale(1,1)"><g><path fill="none" stroke="none"/><text fill="#000000" stroke="none" font-family="Arial" font-size="13px" font-style="normal" font-weight="normal" text-decoration="none" x="833.59716796875" y="670.5">-followerFilterOpr: String</text></g></g><g transform="translate(-6,-10) scale(1,1)"><g><path fill="none" stroke="none"/><text fill="#000000" stroke="none" font-family="Arial" font-size="13px" font-style="normal" font-weight="normal" text-decoration="none" x="833.59716796875" y="685.5">-followerFilterLimit: int</text></g></g><g transform="translate(-6,-10) scale(1,1)"><g><path fill="none" stroke="none"/><text fill="#000000" stroke="none" font-family="Arial" font-size="13px" font-style="normal" font-weight="normal" text-decoration="none" x="833.59716796875" y="708.5">+resetUI(): void</text></g></g><g transform="translate(-6,-10) scale(1,1)"><rect fill="#C0C0C0" stroke="none" x="670.18505859375" y="37" width="294.390625" height="85" opacity="0.2"/></g><g transform="translate(-6,-10) scale(1,1)"><rect fill="#ffffff" stroke="none" x="663.18505859375" y="30" width="294.390625" height="85"/></g><g transform="translate(-6,-10) scale(1,1)"><path fill="none" stroke="#000000" d="M 663.18505859375 30 L 957.57568359375 30 L 957.57568359375 115 L 663.18505859375 115 L 663.18505859375 30 Z Z" stroke-miterlimit="10"/></g><g transform="translate(-6,-10) scale(1,1)"><path fill="none" stroke="#000000" d="M 663.18505859375 55 L 957.57568359375 55" stroke-miterlimit="10"/></g><g transform="translate(-6,-10) scale(1,1)"><path fill="none" stroke="#000000" d="M 663.18505859375 78 L 957.57568359375 78" stroke-miterlimit="10"/></g><g transform="translate(-6,-10) scale(1,1)"><g><path fill="none" stroke="none"/><text fill="#000000" stroke="none" font-family="Arial" font-size="13px" font-style="normal" font-weight="bold" text-decoration="none" x="758.358154296875" y="49.5">UserResultsPanel</text></g></g><g transform="translate(-6,-10) scale(1,1)"><g><path fill="none" stroke="none"/><text fill="#000000" stroke="none" font-family="Arial" font-size="13px" font-style="normal" font-weight="normal" text-decoration="none" x="668.18505859375" y="72.5">-results: GitHubSearchResults&lt;GitHubUser&gt;</text></g></g><g transform="translate(-6,-10) scale(1,1)"><g><path fill="none" stroke="none"/><text fill="#000000" stroke="none" font-family="Arial" font-size="13px" font-style="normal" font-weight="normal" text-decoration="none" x="668.18505859375" y="95.5">+generateResults(): void</text></g></g><g transform="translate(-6,-10) scale(1,1)"><g><path fill="none" stroke="none"/><text fill="#000000" stroke="none" font-family="Arial" font-size="13px" font-style="normal" font-weight="normal" text-decoration="none" x="668.18505859375" y="110.5">+resetUI(): void</text></g></g><g transform="translate(-6,-10) scale(1,1)"><path fill="none" stroke="#000000" d="M 892 714 Q 890 729 835 794" stroke-miterlimit="10"/></g><g transform="translate(-6,-10) scale(1,1)"><path fill="#FFFFFF" stroke="none" d="M 841.7020257077306 773.0456961124231 L 835 794 L 854.5559781995721 783.9221174516737"/></g><g transform="translate(-6,-10) scale(1,1)"><path fill="none" stroke="#000000" d="M 841.7020257077306 773.0456961124231 L 835 794 L 854.5559781995721 783.9221174516737 L 841.7020257077306 773.0456961124231" stroke-miterlimit="10"/></g><g transform="translate(-6,-10) scale(1,1)"><path fill="none" stroke="#000000" d="M 793 116 Q 784 141 784 435 Q 784 729 808 794" stroke-miterlimit="10"/></g><g transform="translate(-6,-10) scale(1,1)"><path fill="#FFFFFF" stroke="none" d="M 793.0619581061302 777.8489967996724 L 808 794 L 808.8576931651132 772.0167253932786"/></g><g transform="translate(-6,-10) scale(1,1)"><path fill="none" stroke="#000000" d="M 793.0619581061302 777.8489967996724 L 808 794 L 808.8576931651132 772.0167253932786 L 793.0619581061302 777.8489967996724" stroke-miterlimit="10"/></g><g transform="translate(-6,-10) scale(1,1)"><path fill="none" stroke="#000000" d="M 662 90 Q 244 141 232 155" stroke-miterlimit="10" stroke-dasharray="3"/></g><g transform="translate(-6,-10) scale(1,1)"><path fill="none" stroke="#000000" d="M 235.41767697955058 144.54440417463212 L 232 155 L 241.80988527760874 150.023439858682" stroke-miterlimit="10"/></g><g transform="translate(-6,-10) scale(1,1)"><path fill="none" stroke="#000000" d="M 870 116 Q 904 141 904 324.5 Q 904 508 904 522" stroke-miterlimit="10" stroke-dasharray="3"/></g><g transform="translate(-6,-10) scale(1,1)"><path fill="none" stroke="#000000" d="M 899.790482243984 511.83732514237585 L 904 522 L 908.209517756016 511.83732514237585" stroke-miterlimit="10"/></g><g transform="translate(-6,-10) scale(1,1)"><rect fill="#C0C0C0" stroke="none" x="574.251708984375" y="582.5" width="124.248046875" height="85" opacity="0.2"/></g><g transform="translate(-6,-10) scale(1,1)"><rect fill="#ffffff" stroke="none" x="567.251708984375" y="575.5" width="124.248046875" height="85"/></g><g transform="translate(-6,-10) scale(1,1)"><path fill="none" stroke="#000000" d="M 567.251708984375 575.5 L 691.499755859375 575.5 L 691.499755859375 660.5 L 567.251708984375 660.5 L 567.251708984375 575.5 Z Z" stroke-miterlimit="10"/></g><g transform="translate(-6,-10) scale(1,1)"><path fill="none" stroke="#000000" d="M 567.251708984375 600.5 L 691.499755859375 600.5" stroke-miterlimit="10"/></g><g transform="translate(-6,-10) scale(1,1)"><path fill="none" stroke="#000000" d="M 567.251708984375 623.5 L 691.499755859375 623.5" stroke-miterlimit="10"/></g><g transform="translate(-6,-10) scale(1,1)"><g><path fill="none" stroke="none"/><text fill="#000000" stroke="none" font-family="Arial" font-size="13px" font-style="normal" font-weight="bold" text-decoration="none" x="593.962158203125" y="595">ReposPanel</text></g></g><g transform="translate(-6,-10) scale(1,1)"><g><path fill="none" stroke="none"/><text fill="#000000" stroke="none" font-family="Arial" font-size="13px" font-style="normal" font-weight="normal" text-decoration="none" x="572.251708984375" y="618">-user: GitHubUser</text></g></g><g transform="translate(-6,-10) scale(1,1)"><g><path fill="none" stroke="none"/><text fill="#000000" stroke="none" font-family="Arial" font-size="13px" font-style="normal" font-weight="normal" text-decoration="none" x="572.251708984375" y="641">+showRepos(): void</text></g></g><g transform="translate(-6,-10) scale(1,1)"><g><path fill="none" stroke="none"/><text fill="#000000" stroke="none" font-family="Arial" font-size="13px" font-style="normal" font-weight="normal" text-decoration="none" x="572.251708984375" y="656">+resetUI(): void</text></g></g><g transform="translate(-6,-10) scale(1,1)"><path fill="none" stroke="#000000" d="M 679 662 Q 736 712 799 794" stroke-miterlimit="10"/></g><g transform="translate(-6,-10) scale(1,1)"><path fill="#FFFFFF" stroke="none" d="M 779.9407617574066 783.0115771098823 L 799 794 L 793.2930717345598 772.7530950542645"/></g><g transform="translate(-6,-10) scale(1,1)"><path fill="none" stroke="#000000" d="M 779.9407617574066 783.0115771098823 L 799 794 L 793.2930717345598 772.7530950542645 L 779.9407617574066 783.0115771098823" stroke-miterlimit="10"/></g><g transform="translate(-6,-10) scale(1,1)"><path fill="none" stroke="#000000" d="M 292 456 Q 615 508 623 575" stroke-miterlimit="10"/></g><g transform="translate(-6,-10) scale(1,1)"><path fill="#000000" stroke="none" d="M 617.6152778690575 565.4080884296957 L 623 575 L 625.9749321823092 564.4099207505014 L 620.3916621552564 553.1551705502726"/></g><g transform="translate(-6,-10) scale(1,1)"><path fill="none" stroke="#000000" d="M 617.6152778690575 565.4080884296957 L 623 575 L 625.9749321823092 564.4099207505014 L 620.3916621552564 553.1551705502726 L 617.6152778690575 565.4080884296957" stroke-miterlimit="10"/></g><g transform="translate(-6,-10) scale(1,1)"><g><path fill="none" stroke="none"/><text fill="#000000" stroke="none" font-family="Arial" font-size="13px" font-style="normal" font-weight="normal" text-decoration="none" x="604.5" y="560.5">1</text></g></g><g transform="translate(-6,-10) scale(1,1)"><path fill="none" stroke="#000000" d="M 635 575 Q 645 508 645 324.5 Q 645 141 705 116" stroke-miterlimit="10" stroke-dasharray="3"/></g><g transform="translate(-6,-10) scale(1,1)"><path fill="none" stroke="#000000" d="M 697.2381146529684 123.79442979694713 L 705 116 L 694.0000240714177 116.0230124012253" stroke-miterlimit="10"/></g><g transform="translate(-6,-10) scale(1,1)"><path fill="none" stroke="#000000" d="M 828 648 Q 625 729 622 743" stroke-miterlimit="10" stroke-dasharray="3"/></g><g transform="translate(-6,-10) scale(1,1)"><path fill="none" stroke="#000000" d="M 620.013299378052 732.1808955713168 L 622 743 L 628.2454526259203 733.9449284101457" stroke-miterlimit="10"/></g><g transform="translate(-6,-10) scale(1,1)"><path fill="none" stroke="#000000" d="M 566 645 Q 370 729 365 758" stroke-miterlimit="10" stroke-dasharray="3"/></g><g transform="translate(-6,-10) scale(1,1)"><path fill="none" stroke="#000000" d="M 362.5783968934573 747.2698630766247 L 365 758 L 370.8750206036001 748.7003154404424" stroke-miterlimit="10"/></g><g transform="translate(-6,-10) scale(1,1)"><rect fill="#C0C0C0" stroke="none" x="965.623046875" y="955" width="55.2490234375" height="44" opacity="0.2"/></g><g transform="translate(-6,-10) scale(1,1)"><rect fill="#ffffff" stroke="none" x="958.623046875" y="948" width="55.2490234375" height="44"/></g><g transform="translate(-6,-10) scale(1,1)"><path fill="none" stroke="#000000" d="M 958.623046875 948 L 1013.8720703125 948 L 1013.8720703125 992 L 958.623046875 992 L 958.623046875 948 Z Z" stroke-miterlimit="10"/></g><g transform="translate(-6,-10) scale(1,1)"><path fill="none" stroke="#000000" d="M 958.623046875 973 L 1013.8720703125 973" stroke-miterlimit="10"/></g><g transform="translate(-6,-10) scale(1,1)"><path fill="none" stroke="#000000" d="M 958.623046875 983 L 1013.8720703125 983" stroke-miterlimit="10"/></g><g transform="translate(-6,-10) scale(1,1)"><g><path fill="none" stroke="none"/><text fill="#000000" stroke="none" font-family="Arial" font-size="13px" font-style="normal" font-weight="bold" text-decoration="none" x="964.218017578125" y="967.5">JFrame</text></g></g><g transform="translate(-6,-10) scale(1,1)"><rect fill="#C0C0C0" stroke="none" x="915.955810546875" y="795" width="154.58349609375" height="57" opacity="0.2"/></g><g transform="translate(-6,-10) scale(1,1)"><rect fill="#ffffff" stroke="none" x="908.955810546875" y="788" width="154.58349609375" height="57"/></g><g transform="translate(-6,-10) scale(1,1)"><path fill="none" stroke="#000000" d="M 908.955810546875 788 L 1063.539306640625 788 L 1063.539306640625 845 L 908.955810546875 845 L 908.955810546875 788 Z Z" stroke-miterlimit="10"/></g><g transform="translate(-6,-10) scale(1,1)"><path fill="none" stroke="#000000" d="M 908.955810546875 813 L 1063.539306640625 813" stroke-miterlimit="10"/></g><g transform="translate(-6,-10) scale(1,1)"><path fill="none" stroke="#000000" d="M 908.955810546875 823 L 1063.539306640625 823" stroke-miterlimit="10"/></g><g transform="translate(-6,-10) scale(1,1)"><g><path fill="none" stroke="none"/><text fill="#000000" stroke="none" font-family="Arial" font-size="13px" font-style="normal" font-weight="bold" text-decoration="none" x="957.3466796875" y="807.5">GitSearch</text></g></g><g transform="translate(-6,-10) scale(1,1)"><g><path fill="none" stroke="none"/><text fill="#000000" stroke="none" font-family="Arial" font-size="13px" font-style="normal" font-weight="normal" text-decoration="none" x="913.955810546875" y="840.5">+main(String[] args): void</text></g></g><g transform="translate(-6,-10) scale(1,1)"><path fill="none" stroke="#000000" d="M 963 714 Q 972 729 981 787" stroke-miterlimit="10"/></g><g transform="translate(-6,-10) scale(1,1)"><path fill="#000000" stroke="none" d="M 975.2819469811632 777.6029861299576 L 981 787 L 983.6014181656072 776.3120337047851 L 977.6265787437048 765.260174126098"/></g><g transform="translate(-6,-10) scale(1,1)"><path fill="none" stroke="#000000" d="M 975.2819469811632 777.6029861299576 L 981 787 L 983.6014181656072 776.3120337047851 L 977.6265787437048 765.260174126098 L 975.2819469811632 777.6029861299576" stroke-miterlimit="10"/></g><g transform="translate(-6,-10) scale(1,1)"><g><path fill="none" stroke="none"/><text fill="#000000" stroke="none" font-family="Arial" font-size="13px" font-style="normal" font-weight="normal" text-decoration="none" x="961.5" y="773.5">1</text></g></g><g transform="translate(-6,-10) scale(1,1)"><path fill="none" stroke="#000000" d="M 937 116 Q 1009 141 1009 435 Q 1009 729 994 787" stroke-miterlimit="10"/></g><g transform="translate(-6,-10) scale(1,1)"><path fill="#000000" stroke="none" d="M 992.4691275947393 776.1070467880004 L 994 787 L 1000.6199908244615 778.2150286577562 L 999.5084220833074 765.7007679445447"/></g><g transform="translate(-6,-10) scale(1,1)"><path fill="none" stroke="#000000" d="M 992.4691275947393 776.1070467880004 L 994 787 L 1000.6199908244615 778.2150286577562 L 999.5084220833074 765.7007679445447 L 992.4691275947393 776.1070467880004" stroke-miterlimit="10"/></g><g transform="translate(-6,-10) scale(1,1)"><g><path fill="none" stroke="none"/><text fill="#000000" stroke="none" font-family="Arial" font-size="13px" font-style="normal" font-weight="normal" text-decoration="none" x="983.5" y="768.5">1</text></g></g><g transform="translate(-6,-10) scale(1,1)"><path fill="none" stroke="#000000" d="M 986 846 Q 987 905 986 947" stroke-miterlimit="10"/></g><g transform="translate(-6,-10) scale(1,1)"><path fill="#FFFFFF" stroke="none" d="M 978.0671496077304 926.4800125571708 L 986 947 L 994.9004499641751 926.8808054228004"/></g><g transform="translate(-6,-10) scale(1,1)"><path fill="none" stroke="#000000" d="M 978.0671496077304 926.4800125571708 L 986 947 L 994.9004499641751 926.8808054228004 L 978.0671496077304 926.4800125571708" stroke-miterlimit="10"/></g><g transform="translate(-6,-10) scale(1,1)"><path fill="none" stroke="#000000" d="M 692 653 L 934 787" stroke-miterlimit="10"/></g><g transform="translate(-6,-10) scale(1,1)"><path fill="#000000" stroke="none" d="M 923.0701485123448 785.7596990454725 L 934 787 L 927.1484531113757 778.3944026800586 L 914.7535530872232 776.3428765028426"/></g><g transform="translate(-6,-10) scale(1,1)"><path fill="none" stroke="#000000" d="M 923.0701485123448 785.7596990454725 L 934 787 L 927.1484531113757 778.3944026800586 L 914.7535530872232 776.3428765028426 L 923.0701485123448 785.7596990454725" stroke-miterlimit="10"/></g><g transform="translate(-6,-10) scale(1,1)"><g><path fill="none" stroke="none"/><text fill="#000000" stroke="none" font-family="Arial" font-size="13px" font-style="normal" font-weight="normal" text-decoration="none" x="905.5" y="793.5">1</text></g></g></g></svg>